<?xml version="1.0" encoding="utf-8"?>
<!-- Generator: Adobe Illustrator 24.1.3, SVG Export Plug-In . SVG Version: 6.00 Build 0)  -->
<!DOCTYPE svg PUBLIC "-//W3C//DTD SVG 1.1//EN" "http://www.w3.org/Graphics/SVG/1.1/DTD/svg11.dtd" [
	<!ENTITY ns_extend "http://ns.adobe.com/Extensibility/1.0/">
	<!ENTITY ns_ai "http://ns.adobe.com/AdobeIllustrator/10.0/">
	<!ENTITY ns_graphs "http://ns.adobe.com/Graphs/1.0/">
	<!ENTITY ns_vars "http://ns.adobe.com/Variables/1.0/">
	<!ENTITY ns_imrep "http://ns.adobe.com/ImageReplacement/1.0/">
	<!ENTITY ns_sfw "http://ns.adobe.com/SaveForWeb/1.0/">
	<!ENTITY ns_custom "http://ns.adobe.com/GenericCustomNamespace/1.0/">
	<!ENTITY ns_adobe_xpath "http://ns.adobe.com/XPath/1.0/">
]>
<svg version="1.1" id="Слой_1" xmlns:x="&ns_extend;" xmlns:i="&ns_ai;" xmlns:graph="&ns_graphs;"
	 xmlns="http://www.w3.org/2000/svg" xmlns:xlink="http://www.w3.org/1999/xlink" x="0px" y="0px" viewBox="0 0 265.9 175.4"
	 style="enable-background:new 0 0 265.9 175.4;" xml:space="preserve">
<style type="text/css">
	.st0{fill-rule:evenodd;clip-rule:evenodd;fill:#151616;}
</style>
<metadata>
	<sfw  xmlns="&ns_sfw;">
		<slices></slices>
		<sliceSourceBounds  bottomLeftOrigin="true" height="175.4" width="265.9" x="0" y="0"></sliceSourceBounds>
	</sfw>
</metadata>
<path class="st0" d="M25.3,33.6V9.4h220.6v24.2h8.6V0H16.7v33.6H25.3z M245.9,139.2H25.3V115h-8.6v33.6h237.8V115h-8.6L245.9,139.2z
	"/>
<path class="st0" d="M265.9,43v3.9h-1.1v-2.8h-11.1l0.1,28.6c0-0.5,0.2-1.1,0.7-1.4c0.8-0.4,1.7-0.6,2.5-0.5h4.2V69h1.2v4.6h-1.1V72
	h-4.5c-0.8-0.1-1.7,0.2-2.2,0.9c-0.5,0.8-0.7,1.7-0.7,2.6v27.8h11v-2.8h1.1v3.9h-21.6v-1h2.2V44.1h-2.2v-1H265.9z M220.5,104.3V44.1
	h-2.2v-1h11.1v1h-1.8l-0.1,59.2h8.3l0.1-3.6h1.1v4.6H220.5z M197.2,76.5l-9.1-32.4h-1.9v-1h10.3v1h-2l7.5,29.6l8-29.6h-1.8v-1h4.8v1
	h-1.7l-8.7,31v28.2h1.8v1H195v-1h2.2L197.2,76.5z M181.4,43v4.3h-1.1v-3.2h-8.7l0.1,59.2h1.8v1h-11.2v-1h2.2V44.1h-8.2v3.2h-1.1V43
	L181.4,43z M138.6,103.3c1.2,0,2.4-0.2,3.5-0.6c0.9-0.4,1.7-1.1,2.1-2c0.5-1.2,0.7-2.5,0.5-3.8c-0.3-2.1-0.8-4.1-1.6-6l-14-33.1
	c-0.6-1.6-0.9-3.3-1-5c-0.1-1.7,0.3-3.3,1-4.9c0.8-1.5,2-2.8,3.5-3.6c2-1.1,4.3-1.6,6.6-1.5c2-0.1,4.1,0.2,6,0.9
	c1.3,0.4,2.4,1.1,3.4,2.1c0.7,0.7,1.1,1.6,1.2,2.6c0.1,0.8-0.1,1.6-0.5,2.3c-0.4,0.6-1,1.1-1.7,1.4c-0.8,0.3-1.7,0.1-2.3-0.4
	c-1-0.6-1.5-1.2-1.7-1.8c-0.1-0.6-0.1-1.2,0.1-1.8c0.2-0.6,0.4-1.1,0.6-1.6c0.3-0.4,0.3-0.9,0.2-1.4c-0.1-0.4-0.6-0.7-1.4-1
	c-1.3-0.3-2.7-0.4-4.1-0.4c-1.2,0-2.4,0.2-3.5,0.6c-0.9,0.4-1.7,1.1-2.1,2c-0.5,1.2-0.7,2.5-0.5,3.8c0.3,2,0.8,4,1.5,6l14,33.1h0.1
	c0.6,1.6,0.9,3.3,1,5c0.1,1.7-0.3,3.3-1,4.9c-0.7,1.6-1.9,2.9-3.4,3.7c-2.1,1.1-4.4,1.6-6.7,1.4c-2,0.1-4.1-0.2-6-0.9
	c-1.3-0.4-2.4-1.1-3.4-2.1c-0.7-0.7-1.1-1.6-1.2-2.6c-0.1-0.8,0.1-1.6,0.5-2.3c0.4-0.6,0.9-1.1,1.6-1.3c0.8-0.2,1.7-0.1,2.4,0.4
	c1,0.6,1.5,1.2,1.7,1.8c0.1,0.6,0.1,1.2-0.1,1.8c-0.2,0.6-0.4,1.1-0.6,1.7c-0.2,0.4-0.3,0.9-0.2,1.4c0.1,0.4,0.6,0.7,1.4,1
	C135.9,103.3,137.3,103.4,138.6,103.3L138.6,103.3z M79.3,73.5c-0.2,0.5-0.3,1-0.3,1.5c-0.2,0.9-0.3,2.1-0.6,3.5
	c-0.2,1.5-0.5,3.1-0.8,5s-0.6,3.7-0.9,5.6c-0.7,4.5-1.5,9.6-2.4,15.2l-7.1,0.1l-8.9-60.5h-1.8V43h12.5v0.9H67l6.5,56.1l5.3-30.7
	l-3.8-25.4h-1.8V43h12.5v0.9h-2.2L90,100l9.4-56.1h-1.5V43h3.7c0.4,0,0.6,0,0.6,0.1v0.8h-1.4c-0.2,0.9-0.4,1.8-0.5,2.7
	c-0.3,1.8-0.7,4.1-1.1,6.9c-0.5,2.9-1,6.1-1.6,9.7c-0.6,3.6-1.2,7.3-1.8,11c-1.5,8.8-3.1,18.8-4.8,30l-7.1,0.1L79.3,73.5z M52.3,43
	v3.9h-1.1v-2.8H40l0.1,28.6c0-0.5,0.2-1.1,0.7-1.4c0.8-0.4,1.7-0.6,2.5-0.5h4.2V69h1.1v4.6h-1.1V72H43c-0.8-0.1-1.7,0.2-2.2,0.9
	c-0.5,0.8-0.7,1.7-0.7,2.6v27.8h11v-2.8h1.2v3.9H30.7v-1h2.2V44.1h-2.2v-1H52.3z M21.8,104.3c-3.2-7.8-6-14.8-8.6-21.2
	c-1.1-2.7-2.2-5.4-3.2-8s-2-5.1-2.9-7.4S5.5,63.6,4.9,62S4,59.3,3.8,58.8v44.5h1.8v1H0v-1h2.2V44.1H0v-1h5.6L24,89.5V44.1h-2.2v-1
	h5.6v1h-1.8v40.7c0,3.6,0,6.8,0,9.7s0,5.2,0,7v2.9L21.8,104.3z"/>
<path class="st0" d="M226.3,173.7h-1v-7.2h1V173.7z M221.5,169.6c0.4,0,0.8,0,1.1,0.1c0.3,0.1,0.6,0.2,0.8,0.4
	c0.2,0.2,0.4,0.4,0.5,0.6c0.1,0.2,0.2,0.5,0.1,0.8c0,0.3-0.1,0.6-0.2,0.9c-0.1,0.3-0.3,0.5-0.5,0.7c-0.2,0.2-0.5,0.3-0.8,0.4
	c-0.3,0.1-0.7,0.2-1.1,0.1h-2.4v-7.2h1v3.1L221.5,169.6z M221.5,172.9c0.2,0,0.5,0,0.7-0.1c0.2-0.1,0.3-0.1,0.5-0.3
	c0.1-0.1,0.2-0.2,0.3-0.4c0.1-0.2,0.1-0.3,0.1-0.5c0-0.2,0-0.4-0.1-0.5c-0.1-0.1-0.2-0.3-0.3-0.4c-0.1-0.1-0.3-0.2-0.5-0.2
	c-0.2-0.1-0.5-0.1-0.7-0.1h-1.4v2.5L221.5,172.9z M210.8,167.4h-2.3v6.4h-1v-6.4h-2.3v-0.8h5.6L210.8,167.4z M196.7,170.1
	c0-0.4-0.1-0.8-0.2-1.2c-0.1-0.3-0.3-0.6-0.5-0.9c-0.2-0.2-0.5-0.4-0.8-0.6c-0.3-0.1-0.7-0.2-1-0.2c-0.4,0-0.7,0.1-1,0.2
	c-0.3,0.1-0.6,0.3-0.8,0.6c-0.2,0.3-0.4,0.6-0.5,0.9c-0.1,0.4-0.2,0.8-0.2,1.2c0,0.4,0.1,0.8,0.2,1.2c0.1,0.3,0.3,0.6,0.5,0.9
	c0.2,0.2,0.5,0.4,0.8,0.5c0.3,0.1,0.7,0.2,1,0.2c0.3,0,0.7-0.1,1-0.2c0.3-0.1,0.6-0.3,0.8-0.5c0.2-0.3,0.4-0.6,0.5-0.9
	C196.6,170.9,196.7,170.5,196.7,170.1L196.7,170.1z M197.7,170.1c0,0.5-0.1,1-0.3,1.5c-0.2,0.4-0.4,0.8-0.7,1.2
	c-0.3,0.3-0.7,0.6-1.1,0.8c-0.9,0.4-2,0.4-2.9,0c-0.4-0.2-0.8-0.4-1.1-0.8c-0.3-0.3-0.6-0.7-0.7-1.2c-0.3-1-0.3-2,0-3
	c0.2-0.4,0.4-0.8,0.7-1.2c0.3-0.3,0.7-0.6,1.1-0.8c0.9-0.4,2-0.4,2.9,0c0.4,0.2,0.8,0.4,1.1,0.8c0.3,0.3,0.6,0.7,0.7,1.2
	C197.6,169.1,197.7,169.6,197.7,170.1L197.7,170.1z M182.3,172.2c0.1,0,0.1,0,0.1,0.1l0.4,0.4c-0.3,0.3-0.7,0.6-1.1,0.8
	c-0.5,0.2-1,0.3-1.5,0.3c-0.5,0-1-0.1-1.4-0.3c-0.4-0.2-0.8-0.4-1.1-0.8c-0.3-0.3-0.5-0.7-0.7-1.1c-0.2-0.5-0.3-1-0.3-1.5
	c0-0.5,0.1-1,0.3-1.5c0.2-0.4,0.4-0.8,0.7-1.2c0.3-0.3,0.7-0.6,1.1-0.8c0.5-0.2,0.9-0.3,1.4-0.3c0.9,0,1.7,0.3,2.4,0.9l-0.3,0.4
	c0,0,0,0.1-0.1,0.1c0,0-0.1,0-0.1,0c-0.1,0-0.2,0-0.2-0.1c-0.5-0.4-1-0.6-1.6-0.5c-0.3,0-0.7,0.1-1,0.2c-0.3,0.1-0.6,0.3-0.8,0.6
	c-0.2,0.3-0.4,0.6-0.5,0.9c-0.1,0.4-0.2,0.8-0.2,1.2c0,0.4,0.1,0.8,0.2,1.2c0.1,0.3,0.3,0.6,0.5,0.9c0.2,0.2,0.5,0.4,0.8,0.6
	c0.3,0.1,0.7,0.2,1,0.2c0.2,0,0.4,0,0.6,0c0.2,0,0.3-0.1,0.5-0.1c0.1-0.1,0.3-0.1,0.4-0.2C182,172.5,182.1,172.4,182.3,172.2
	C182.2,172.3,182.3,172.2,182.3,172.2z M169.3,173.7h-0.8c-0.1,0-0.1,0-0.2-0.1c-0.1,0-0.1-0.1-0.1-0.2l-0.7-1.7h-3.3l-0.7,1.7
	c0,0.1-0.1,0.1-0.1,0.2c-0.1,0-0.1,0.1-0.2,0.1h-0.8l2.9-7.2h1L169.3,173.7z M167.3,171l-1.1-2.9c0-0.1-0.1-0.2-0.1-0.3
	c0-0.1-0.1-0.2-0.1-0.4c-0.1,0.3-0.1,0.5-0.2,0.7l-1.1,2.9L167.3,171z M152.8,166.5c0.4,0,0.8,0,1.2,0.1c0.3,0.1,0.6,0.2,0.8,0.5
	c0.2,0.2,0.4,0.4,0.5,0.7c0.1,0.3,0.2,0.6,0.2,0.9c0,0.3-0.1,0.6-0.2,0.9c-0.1,0.3-0.3,0.5-0.5,0.7c-0.2,0.2-0.5,0.4-0.8,0.5
	c-0.4,0.1-0.8,0.2-1.1,0.2h-1.1v2.7h-1v-7.2L152.8,166.5z M152.8,170.3c0.3,0,0.5,0,0.7-0.1c0.2-0.1,0.4-0.2,0.5-0.3
	c0.1-0.1,0.3-0.3,0.3-0.5c0.1-0.2,0.1-0.4,0.1-0.6c0-0.4-0.1-0.8-0.4-1.1c-0.4-0.3-0.8-0.4-1.3-0.4h-1.1v3L152.8,170.3z
	 M142.5,173.7h-0.9c-0.1,0-0.2,0-0.2-0.1c-0.1-0.1-0.1-0.1-0.2-0.2l-1.9-2.6c-0.1-0.1-0.2-0.2-0.3-0.3c-0.1-0.1-0.3-0.1-0.4-0.1
	h-0.9v3.3h-1v-7.2h1v3.1h0.7c0.1,0,0.3,0,0.4-0.1c0.1-0.1,0.2-0.2,0.3-0.3l1.9-2.5c0.1-0.1,0.1-0.1,0.2-0.2c0.1,0,0.2-0.1,0.3-0.1
	h0.8l-2.2,2.9c-0.2,0.2-0.4,0.4-0.6,0.5c0.2,0,0.3,0.1,0.4,0.2c0.1,0.1,0.3,0.3,0.4,0.4L142.5,173.7z M120,173.7h-1v-3.1h-1
	c-0.1,0-0.2,0-0.3,0c-0.1,0-0.2,0-0.2,0.1c-0.1,0-0.2,0.1-0.2,0.2c-0.1,0.1-0.2,0.2-0.2,0.3l-1.5,2.2c-0.1,0.1-0.1,0.2-0.3,0.3
	c-0.1,0.1-0.2,0.1-0.4,0.1h-0.7l1.9-2.6c0.2-0.3,0.4-0.5,0.7-0.6c-0.3,0-0.5-0.1-0.8-0.3c-0.2-0.1-0.4-0.2-0.5-0.4
	c-0.1-0.2-0.2-0.3-0.3-0.5c-0.1-0.2-0.1-0.4-0.1-0.7c0-0.3,0.1-0.5,0.1-0.8c0.1-0.2,0.3-0.5,0.5-0.6c0.2-0.2,0.5-0.3,0.8-0.4
	c0.3-0.1,0.7-0.1,1.1-0.1h2.4L120,173.7z M119,169.9v-2.5h-1.4c-0.2,0-0.5,0-0.7,0.1c-0.2,0-0.3,0.1-0.5,0.3
	c-0.1,0.1-0.2,0.2-0.3,0.4c-0.1,0.2-0.1,0.3-0.1,0.5c0,0.2,0,0.4,0.1,0.5c0,0.2,0.1,0.3,0.3,0.4c0.1,0.1,0.3,0.2,0.5,0.3
	c0.2,0.1,0.5,0.1,0.7,0.1H119z M106.1,166.5v7.2h-1v-5.1c0-0.1,0-0.3,0-0.5c0-0.2,0-0.3,0-0.5c-0.1,0.2-0.1,0.3-0.2,0.4
	c-0.1,0.1-0.1,0.2-0.2,0.3l-3.4,5c0,0.1-0.1,0.1-0.2,0.2c-0.1,0.1-0.2,0.1-0.3,0.1h-0.7v-7.2h1v5.5c0,0.1,0,0.3,0,0.5
	c0.1-0.2,0.1-0.3,0.2-0.4l0.2-0.3l3.4-5c0-0.1,0.1-0.1,0.2-0.2c0.1-0.1,0.2-0.1,0.3-0.1L106.1,166.5z M91.9,172.9v2.2
	c0,0.1,0,0.2-0.1,0.2c-0.1,0.1-0.1,0.1-0.2,0.1H91v-1.8h-5.7v1.5c0,0.1,0,0.2-0.1,0.2c-0.1,0.1-0.1,0.1-0.2,0.1h-0.6v-2.5h0.7
	c0.1-0.1,0.2-0.1,0.3-0.2c0.1-0.1,0.2-0.3,0.3-0.5c0.1-0.3,0.2-0.5,0.3-0.8c0.1-0.4,0.2-0.8,0.2-1.2c0.1-0.5,0.1-1,0.2-1.6
	s0.1-1.3,0.1-2.1h4.3v6.4L91.9,172.9z M89.8,172.9v-5.6h-2.4c0,0.8-0.1,1.5-0.2,2.1c-0.1,0.5-0.1,1.1-0.3,1.6
	c-0.1,0.4-0.2,0.8-0.3,1.1c-0.1,0.3-0.2,0.5-0.4,0.8L89.8,172.9z M77.8,166.5l-2.9,6.2c-0.1,0.2-0.2,0.3-0.3,0.5
	c-0.1,0.1-0.2,0.2-0.3,0.3c-0.1,0.1-0.3,0.1-0.4,0.2c-0.1,0-0.3,0-0.4,0c-0.1,0-0.3,0-0.4,0c-0.1,0-0.1-0.1-0.1-0.1V173h0.4
	c0.1,0,0.2,0,0.3,0c0.1,0,0.2,0,0.2-0.1c0.1-0.1,0.2-0.1,0.2-0.2c0.1-0.1,0.1-0.2,0.2-0.3l0.4-0.7l-2.9-5.1h0.9c0.1,0,0.1,0,0.2,0.1
	c0.1,0,0.1,0.1,0.1,0.2l1.8,3.3c0.1,0.2,0.2,0.5,0.3,0.7c0-0.1,0.1-0.2,0.1-0.4c0-0.1,0.1-0.2,0.1-0.4l1.5-3.3
	c0-0.1,0.1-0.1,0.1-0.1c0.1,0,0.1-0.1,0.2-0.1L77.8,166.5z M64.1,167.4h-2.3v6.4h-1v-6.4h-2.3v-0.8h5.6L64.1,167.4z M50.4,172.2
	c0.1,0,0.1,0,0.1,0.1l0.4,0.4c-0.3,0.3-0.7,0.6-1.1,0.8c-0.5,0.2-1,0.3-1.6,0.3c-0.5,0-1-0.1-1.4-0.3c-0.4-0.2-0.8-0.4-1.1-0.8
	c-0.3-0.3-0.5-0.7-0.7-1.1c-0.2-0.5-0.3-1-0.3-1.5c0-0.5,0.1-1,0.3-1.5c0.2-0.4,0.4-0.8,0.7-1.2c0.3-0.3,0.7-0.6,1.1-0.8
	c0.5-0.2,0.9-0.3,1.4-0.3c0.5,0,0.9,0.1,1.4,0.2c0.4,0.2,0.7,0.4,1,0.7l-0.3,0.4c0,0,0,0.1-0.1,0.1c0,0-0.1,0-0.1,0
	c-0.1,0-0.2,0-0.2-0.1c-0.1-0.1-0.2-0.2-0.3-0.2c-0.2-0.1-0.3-0.2-0.5-0.2c-0.3-0.1-0.5-0.1-0.8-0.1c-0.3,0-0.7,0.1-1,0.2
	c-0.3,0.1-0.6,0.3-0.8,0.6c-0.2,0.3-0.4,0.6-0.5,0.9c-0.1,0.4-0.2,0.8-0.2,1.2c0,0.4,0.1,0.8,0.2,1.2c0.1,0.3,0.3,0.6,0.5,0.9
	c0.2,0.2,0.5,0.4,0.8,0.6c0.3,0.1,0.7,0.2,1,0.2c0.2,0,0.4,0,0.6,0c0.2,0,0.3-0.1,0.5-0.1c0.1-0.1,0.3-0.1,0.4-0.2
	c0.1-0.1,0.3-0.2,0.4-0.3C50.2,172.3,50.3,172.2,50.4,172.2L50.4,172.2z"/>
</svg>
